<svg width="20" height="15" viewBox="0 0 20 15" fill="none" xmlns="http://www.w3.org/2000/svg">
<path d="M18.9982 0.0267506L0.998205 0.0267506C0.815964 0.0273219 0.63733 0.0775851 0.481529 0.172129C0.325729 0.266672 0.198664 0.401915 0.11401 0.563303C0.029356 0.724691 -0.00968065 0.906111 0.00110245 1.08803C0.0118855 1.26996 0.0720793 1.44549 0.175205 1.59575L9.17521 14.5958C9.54821 15.1348 10.4462 15.1348 10.8202 14.5958L19.8202 1.59575C19.9244 1.44581 19.9855 1.27018 19.9968 1.08796C20.0082 0.90573 19.9694 0.723873 19.8847 0.562143C19.8 0.400414 19.6725 0.264997 19.5162 0.170607C19.36 0.0762164 19.1808 0.026463 18.9982 0.0267506Z" fill="#E9E9E9"/>
</svg>
