<svg width="14" height="14" viewBox="0 0 14 14" fill="none" xmlns="http://www.w3.org/2000/svg">
<path d="M12.249 2.34893L1.74897 2.34893C1.64267 2.34927 1.53846 2.37859 1.44758 2.43374C1.3567 2.48889 1.28257 2.56778 1.23319 2.66192C1.18381 2.75606 1.16104 2.86189 1.16733 2.96801C1.17362 3.07414 1.20873 3.17653 1.26889 3.26418L6.51889 10.8475C6.73647 11.1619 7.26031 11.1619 7.47847 10.8475L12.7285 3.26418C12.7892 3.17672 12.8249 3.07427 12.8315 2.96797C12.8381 2.86167 12.8155 2.75559 12.7661 2.66124C12.7167 2.5669 12.6423 2.48791 12.5512 2.43285C12.46 2.37779 12.3555 2.34876 12.249 2.34893Z" fill="#E9E9E9"/>
</svg>
