<svg width="122" height="22" viewBox="0 0 122 22" fill="none" xmlns="http://www.w3.org/2000/svg">
<path d="M7.944 21C7.592 21 7.296 20.88 7.056 20.64C6.816 20.4 6.696 20.104 6.696 19.752V2.256H9.192V19.752C9.192 20.104 9.072 20.4 8.832 20.64C8.592 20.88 8.296 21 7.944 21ZM1.512 4.56C1.176 4.56 0.896 4.456 0.672 4.248C0.464 4.024 0.36 3.744 0.36 3.408C0.36 3.072 0.464 2.8 0.672 2.592C0.896 2.368 1.176 2.256 1.512 2.256H14.352C14.688 2.256 14.96 2.368 15.168 2.592C15.392 2.8 15.504 3.072 15.504 3.408C15.504 3.744 15.392 4.024 15.168 4.248C14.96 4.456 14.688 4.56 14.352 4.56H1.512ZM19.8898 21.096C18.7218 21.096 17.6738 20.808 16.7458 20.232C15.8178 19.64 15.0818 18.848 14.5378 17.856C14.0098 16.848 13.7458 15.712 13.7458 14.448C13.7458 13.184 14.0338 12.048 14.6098 11.04C15.2018 10.032 15.9938 9.24 16.9858 8.664C17.9938 8.072 19.1218 7.776 20.3698 7.776C21.6178 7.776 22.7378 8.072 23.7298 8.664C24.7218 9.24 25.5058 10.032 26.0818 11.04C26.6738 12.048 26.9698 13.184 26.9698 14.448H26.0338C26.0338 15.712 25.7618 16.848 25.2178 17.856C24.6898 18.848 23.9618 19.64 23.0338 20.232C22.1058 20.808 21.0578 21.096 19.8898 21.096ZM20.3698 18.936C21.1858 18.936 21.9138 18.744 22.5538 18.36C23.1938 17.96 23.6978 17.424 24.0658 16.752C24.4338 16.064 24.6178 15.296 24.6178 14.448C24.6178 13.584 24.4338 12.816 24.0658 12.144C23.6978 11.456 23.1938 10.92 22.5538 10.536C21.9138 10.136 21.1858 9.936 20.3698 9.936C19.5698 9.936 18.8418 10.136 18.1858 10.536C17.5458 10.92 17.0338 11.456 16.6498 12.144C16.2818 12.816 16.0978 13.584 16.0978 14.448C16.0978 15.296 16.2818 16.064 16.6498 16.752C17.0338 17.424 17.5458 17.96 18.1858 18.36C18.8418 18.744 19.5698 18.936 20.3698 18.936ZM25.7458 21.024C25.3938 21.024 25.0978 20.912 24.8578 20.688C24.6338 20.448 24.5218 20.152 24.5218 19.8V16.128L24.9778 13.584L26.9698 14.448V19.8C26.9698 20.152 26.8498 20.448 26.6098 20.688C26.3858 20.912 26.0978 21.024 25.7458 21.024ZM35.3891 21.096C34.2691 21.096 33.2291 20.928 32.2691 20.592C31.3251 20.24 30.5891 19.8 30.0611 19.272C29.8211 19.016 29.7171 18.728 29.7491 18.408C29.7971 18.072 29.9571 17.8 30.2291 17.592C30.5491 17.336 30.8611 17.232 31.1651 17.28C31.4851 17.312 31.7571 17.448 31.9811 17.688C32.2531 17.992 32.6851 18.28 33.2771 18.552C33.8851 18.808 34.5571 18.936 35.2931 18.936C36.2211 18.936 36.9251 18.784 37.4051 18.48C37.9011 18.176 38.1571 17.784 38.1731 17.304C38.1891 16.824 37.9571 16.408 37.4771 16.056C37.0131 15.704 36.1571 15.416 34.9091 15.192C33.2931 14.872 32.1171 14.392 31.3811 13.752C30.6611 13.112 30.3011 12.328 30.3011 11.4C30.3011 10.584 30.5411 9.912 31.0211 9.384C31.5011 8.84 32.1171 8.44 32.8691 8.184C33.6211 7.912 34.4051 7.776 35.2211 7.776C36.2771 7.776 37.2131 7.944 38.0291 8.28C38.8451 8.616 39.4931 9.08 39.9731 9.672C40.1971 9.928 40.3011 10.2 40.2851 10.488C40.2691 10.76 40.1331 10.992 39.8771 11.184C39.6211 11.36 39.3171 11.416 38.9651 11.352C38.6131 11.288 38.3171 11.144 38.0771 10.92C37.6771 10.536 37.2451 10.272 36.7811 10.128C36.3171 9.984 35.7811 9.912 35.1731 9.912C34.4691 9.912 33.8691 10.032 33.3731 10.272C32.8931 10.512 32.6531 10.864 32.6531 11.328C32.6531 11.616 32.7251 11.88 32.8691 12.12C33.0291 12.344 33.3331 12.552 33.7811 12.744C34.2291 12.92 34.8851 13.096 35.7491 13.272C36.9491 13.512 37.8931 13.816 38.5811 14.184C39.2851 14.552 39.7891 14.984 40.0931 15.48C40.3971 15.96 40.5491 16.52 40.5491 17.16C40.5491 17.896 40.3491 18.56 39.9491 19.152C39.5651 19.744 38.9891 20.216 38.2211 20.568C37.4691 20.92 36.5251 21.096 35.3891 21.096ZM45.9484 16.2L44.4604 14.568L51.8284 7.992C52.0684 7.768 52.3324 7.664 52.6204 7.68C52.9244 7.696 53.1804 7.824 53.3884 8.064C53.6124 8.304 53.7164 8.568 53.7004 8.856C53.6844 9.144 53.5564 9.4 53.3164 9.624L45.9484 16.2ZM44.8204 21C44.4684 21 44.1804 20.896 43.9564 20.688C43.7484 20.464 43.6444 20.176 43.6444 19.824V3.432C43.6444 3.08 43.7484 2.8 43.9564 2.592C44.1804 2.368 44.4684 2.256 44.8204 2.256C45.1724 2.256 45.4524 2.368 45.6604 2.592C45.8844 2.8 45.9964 3.08 45.9964 3.432V19.824C45.9964 20.176 45.8844 20.464 45.6604 20.688C45.4524 20.896 45.1724 21 44.8204 21ZM53.3884 20.88C53.1324 21.088 52.8444 21.176 52.5244 21.144C52.2204 21.128 51.9644 20.992 51.7564 20.736L46.8844 14.712L48.5644 13.128L53.5564 19.272C53.7644 19.528 53.8524 19.808 53.8204 20.112C53.8044 20.4 53.6604 20.656 53.3884 20.88ZM58.7964 21C58.4444 21 58.1484 20.88 57.9084 20.64C57.6684 20.4 57.5484 20.104 57.5484 19.752V3.504C57.5484 3.136 57.6684 2.84 57.9084 2.616C58.1484 2.376 58.4444 2.256 58.7964 2.256H63.5964C64.7964 2.256 65.8604 2.52 66.7884 3.048C67.7164 3.576 68.4364 4.312 68.9484 5.256C69.4764 6.184 69.7404 7.256 69.7404 8.472C69.7404 9.64 69.4764 10.68 68.9484 11.592C68.4364 12.504 67.7164 13.216 66.7884 13.728C65.8604 14.24 64.7964 14.496 63.5964 14.496H60.0444V19.752C60.0444 20.104 59.9244 20.4 59.6844 20.64C59.4604 20.88 59.1644 21 58.7964 21ZM60.0444 12.192H63.5964C64.3324 12.192 64.9804 12.032 65.5404 11.712C66.1004 11.392 66.5404 10.952 66.8604 10.392C67.1804 9.832 67.3404 9.192 67.3404 8.472C67.3404 7.704 67.1804 7.032 66.8604 6.456C66.5404 5.864 66.1004 5.4 65.5404 5.064C64.9804 4.728 64.3324 4.56 63.5964 4.56H60.0444V12.192ZM73.4376 12.792C73.4376 11.832 73.6696 10.976 74.1336 10.224C74.6136 9.456 75.2536 8.848 76.0536 8.4C76.8536 7.952 77.7336 7.728 78.6936 7.728C79.6536 7.728 80.3656 7.888 80.8296 8.208C81.3096 8.512 81.4936 8.88 81.3816 9.312C81.3336 9.536 81.2376 9.712 81.0936 9.84C80.9656 9.952 80.8136 10.024 80.6376 10.056C80.4616 10.088 80.2696 10.08 80.0616 10.032C79.0376 9.824 78.1176 9.808 77.3016 9.984C76.4856 10.16 75.8376 10.488 75.3576 10.968C74.8936 11.448 74.6616 12.056 74.6616 12.792H73.4376ZM73.4616 21C73.0776 21 72.7816 20.904 72.5736 20.712C72.3656 20.504 72.2616 20.2 72.2616 19.8V9.072C72.2616 8.688 72.3656 8.392 72.5736 8.184C72.7816 7.976 73.0776 7.872 73.4616 7.872C73.8616 7.872 74.1576 7.976 74.3496 8.184C74.5576 8.376 74.6616 8.672 74.6616 9.072V19.8C74.6616 20.184 74.5576 20.48 74.3496 20.688C74.1576 20.896 73.8616 21 73.4616 21ZM88.9245 21.096C87.6285 21.096 86.4845 20.816 85.4925 20.256C84.5005 19.68 83.7165 18.896 83.1405 17.904C82.5805 16.896 82.3005 15.744 82.3005 14.448C82.3005 13.136 82.5805 11.984 83.1405 10.992C83.7165 9.984 84.5005 9.2 85.4925 8.64C86.4845 8.064 87.6285 7.776 88.9245 7.776C90.2045 7.776 91.3405 8.064 92.3325 8.64C93.3245 9.2 94.1005 9.984 94.6605 10.992C95.2365 11.984 95.5245 13.136 95.5245 14.448C95.5245 15.744 95.2445 16.896 94.6845 17.904C94.1245 18.896 93.3485 19.68 92.3565 20.256C91.3645 20.816 90.2205 21.096 88.9245 21.096ZM88.9245 18.936C89.7565 18.936 90.4925 18.744 91.1325 18.36C91.7725 17.976 92.2685 17.448 92.6205 16.776C92.9885 16.104 93.1725 15.328 93.1725 14.448C93.1725 13.568 92.9885 12.792 92.6205 12.12C92.2685 11.432 91.7725 10.896 91.1325 10.512C90.4925 10.128 89.7565 9.936 88.9245 9.936C88.0925 9.936 87.3565 10.128 86.7165 10.512C86.0765 10.896 85.5725 11.432 85.2045 12.12C84.8365 12.792 84.6525 13.568 84.6525 14.448C84.6525 15.328 84.8365 16.104 85.2045 16.776C85.5725 17.448 86.0765 17.976 86.7165 18.36C87.3565 18.744 88.0925 18.936 88.9245 18.936Z" fill="white"/>
<rect x="104" y="11" width="4" height="10" rx="2" fill="#0062C0"/>
<rect x="111" y="2" width="4" height="19" rx="2" fill="#0062C0"/>
<rect x="118" y="8" width="4" height="13" rx="2" fill="#0062C0"/>
</svg>
