<svg width="50" height="21" viewBox="0 0 50 21" fill="none" xmlns="http://www.w3.org/2000/svg">
<path d="M7.944 21C7.592 21 7.296 20.88 7.056 20.64C6.816 20.4 6.696 20.104 6.696 19.752V2.256H9.192V19.752C9.192 20.104 9.072 20.4 8.832 20.64C8.592 20.88 8.296 21 7.944 21ZM1.512 4.56C1.176 4.56 0.896 4.456 0.672 4.248C0.464 4.024 0.36 3.744 0.36 3.408C0.36 3.072 0.464 2.8 0.672 2.592C0.896 2.368 1.176 2.256 1.512 2.256H14.352C14.688 2.256 14.96 2.368 15.168 2.592C15.392 2.8 15.504 3.072 15.504 3.408C15.504 3.744 15.392 4.024 15.168 4.248C14.96 4.456 14.688 4.56 14.352 4.56H1.512Z" fill="white"/>
<path d="M19.648 21C19.296 21 19 20.88 18.76 20.64C18.52 20.4 18.4 20.104 18.4 19.752V3.504C18.4 3.136 18.52 2.84 18.76 2.616C19 2.376 19.296 2.256 19.648 2.256H24.448C25.648 2.256 26.712 2.52 27.64 3.048C28.568 3.576 29.288 4.312 29.8 5.256C30.328 6.184 30.592 7.256 30.592 8.472C30.592 9.64 30.328 10.68 29.8 11.592C29.288 12.504 28.568 13.216 27.64 13.728C26.712 14.24 25.648 14.496 24.448 14.496H20.896V19.752C20.896 20.104 20.776 20.4 20.536 20.64C20.312 20.88 20.016 21 19.648 21ZM20.896 12.192H24.448C25.184 12.192 25.832 12.032 26.392 11.712C26.952 11.392 27.392 10.952 27.712 10.392C28.032 9.832 28.192 9.192 28.192 8.472C28.192 7.704 28.032 7.032 27.712 6.456C27.392 5.864 26.952 5.4 26.392 5.064C25.832 4.728 25.184 4.56 24.448 4.56H20.896V12.192Z" fill="white"/>
<rect x="32" y="11" width="4" height="10" rx="2" fill="#0062C0"/>
<rect x="39" y="2" width="4" height="19" rx="2" fill="#0062C0"/>
<rect x="46" y="8" width="4" height="13" rx="2" fill="#0062C0"/>
</svg>
