<svg width="24" height="24" viewBox="0 0 24 24" fill="none" xmlns="http://www.w3.org/2000/svg">
<path d="M21.29 5.89L11.29 15.89C11.1975 15.9827 11.0876 16.0562 10.9666 16.1064C10.8457 16.1566 10.716 16.1824 10.585 16.1824C10.4541 16.1824 10.3244 16.1566 10.2034 16.1064C10.0824 16.0562 9.97254 15.9827 9.88002 15.89L7.05002 13.06C6.95744 12.9674 6.884 12.8575 6.8339 12.7365C6.78379 12.6156 6.758 12.4859 6.758 12.355C6.758 12.2241 6.78379 12.0944 6.8339 11.9735C6.884 11.8525 6.95744 11.7426 7.05002 11.65C7.14261 11.5574 7.25252 11.484 7.37348 11.4339C7.49445 11.3838 7.62409 11.358 7.75502 11.358C7.88596 11.358 8.0156 11.3838 8.13657 11.4339C8.25753 11.484 8.36744 11.5574 8.46002 11.65L10.58 13.77L19.87 4.48C19.9625 4.38729 20.0724 4.31375 20.1934 4.26356C20.3144 4.21338 20.4441 4.18755 20.575 4.18755C20.706 4.18755 20.8357 4.21338 20.9566 4.26356C21.0776 4.31375 21.1875 4.38729 21.28 4.48C21.68 4.87 21.68 5.5 21.29 5.89ZM15.77 2.74C14.08 2.05 12.16 1.81 10.16 2.17C6.09002 2.9 2.84002 6.18 2.15002 10.25C1.87647 11.8006 1.97258 13.3939 2.43053 14.9004C2.88848 16.4069 3.69535 17.7841 4.7856 18.9201C5.87585 20.0562 7.21872 20.919 8.70511 21.4385C10.1915 21.958 11.7795 22.1196 13.34 21.91C17.3 21.4 20.62 18.45 21.66 14.6C22.06 13.13 22.1 11.71 21.87 10.38C21.74 9.58 20.75 9.27 20.17 9.84C19.94 10.07 19.84 10.41 19.9 10.73C20.12 12.06 20.02 13.48 19.38 14.99C18.22 17.7 15.7 19.69 12.77 19.96C7.67002 20.43 3.44002 16.11 4.07002 10.98C4.50002 7.44 7.35002 4.56 10.88 4.07C12.61 3.83 14.25 4.16 15.65 4.88C15.8861 5.00332 16.1614 5.02783 16.4155 4.94813C16.6697 4.86842 16.8817 4.69104 17.005 4.455C17.1283 4.21895 17.1529 3.94359 17.0732 3.68948C16.9935 3.43536 16.8161 3.22332 16.58 3.1C16.31 2.98 16.04 2.85 15.77 2.74Z" fill="white"/>
</svg>
